<svg width="194" height="141" viewBox="0 0 194 141" fill="none" xmlns="http://www.w3.org/2000/svg">
<path d="M192.522 94.4813C185.211 103.054 174.069 114.713 167.21 122.951C162.175 128.999 155.814 134.23 149.859 136.909C142.88 140.049 134.291 140.583 119.638 139.462C92.7949 137.409 86.638 123.894 82.591 118.946C78.9598 114.507 77.7612 107.69 75.8688 97.814C75.3834 95.2809 75.4812 93.0069 75.9828 90.9663C78.2504 81.7411 93.4325 80.2996 99.3986 80.4174C106.938 80.5662 109.666 89.3893 112.585 94.7093C115.066 99.2323 114.242 104.848 113.113 108.766C111.731 113.562 106.398 115.245 104.126 117.016C101.72 118.891 92.7789 119.052 77.4989 117.426C59.103 115.468 47.8928 105.395 42.5879 100.599C30.7974 89.9406 27.631 78.5668 22.0449 57.5867C16.9556 38.4723 15.7141 25.4118 12.6626 17.6103C10.6372 12.9172 7.09553 7.87081 3.9263 3.42094C3.0371 2.52792 2.0339 1.77552 1.00031 1.00031" stroke="#FFFDE7" stroke-width="2.00049" stroke-linecap="round" stroke-linejoin="round"/>
</svg>
